<svg xmlns="http://www.w3.org/2000/svg" width="873.6" height="307.2" color-interpolation-filters="sRGB" fill="none" fill-rule="evenodd" font-size="12" stroke-linecap="square" stroke-miterlimit="3" viewBox="0 0 655.2 230.4" overflow="visible" xmlns:v="https://vecta.io/nano"><style><![CDATA[.O{fill-opacity:0}.P{fill:#000}.Q{font-family:Arial}.R{font-size:0.666664em}.S{stroke:#c00000}.T{fill:#fff}.U{stroke-linejoin:round}.V{stroke-width:2.16}.W{stroke:red}.X{stroke-linecap:round}]]></style><defs><path d="m2 1-2-1 2-1v2" id="A"/><marker id="B" fill="#c00000" overflow="visible" orient="auto" refX="-4.3333335" fill-opacity="1" class="S"><use transform="scale(-2.1667)" href="#A" stroke-opacity="1" stroke-width=".462"/></marker><path id="C" d="M64.153-22.2h651.97v70.866H64.153z"/></defs><g transform="translate(-61.903 25.481)"><g class="U"><use href="#C" stroke="#09366f" stroke-width=".5" class="T"/><use href="#C" stroke="#ca0e2f" stroke-width="1.5"/></g><text x="279" y="1149.72" fill="#09366f" font-family="Arial Black" font-size="1.5em" transform="translate(64.153 -1141.9)">Stellantis<tspan x="300.48" dy="1.2em" font-size="1em">Hal 5</tspan></text><g class="U V"><g class="S"><circle cx="5.669" cy="1184.9" r="5.669" transform="matrix(-1 0 0 1 400.84 -1030.8)" class="O T"/><path d="M395.57 102l-.36 46.42" class="X"/></g><circle cx="5.669" cy="1184.9" r="5.669" transform="matrix(1 0 0 -1 389.43 1347)" class="O T W"/></g><text x="368.42" y="92.17" class="P Q R">Inkoop &amp; Hal E</text><text x="410.73" y="159.57" class="P Q R">T20</text><text x="433.23" y="159.57" class="P Q R">$T20$</text><g class="V"><path d="m0 1187h1.27" marker-end="url(#B)" stroke-linecap="butt" transform="rotate(90 742.94 839.64)" class="S"/><g class="T U O"><circle cx="5.669" cy="1184.9" r="5.669" transform="matrix(1 0 0 -1 389.2 1346.9)" class="W"/><circle cx="5.669" cy="1184.9" r="5.669" transform="matrix(-1 0 0 1 308.72 -1031)" class="S"/></g></g><text x="318.61" y="159.37" class="P Q R">T19</text><text x="339.61" y="159.37" class="P Q R">$T19$</text><g class="T U V O"><circle cx="5.669" cy="1184.9" r="5.669" transform="matrix(1 0 0 -1 297.07 1346.7)" class="W"/><circle cx="5.669" cy="1184.9" r="5.669" transform="matrix(-1 0 0 1 209.5 -1031)" class="S"/></g><text x="219.39" y="159.37" class="P Q R">T18</text><g class="T U V O"><circle cx="5.669" cy="1184.9" r="5.669" transform="matrix(1 0 0 -1 197.86 1346.7)" class="W"/><circle cx="5.669" cy="1184.9" r="5.669" transform="matrix(-1 0 0 1 492.26 -1031)" class="S"/></g><text x="502.15" y="159.37" class="P Q R">T21</text><text x="524.65" y="159.37" class="P Q R">$T21$</text><g class="T U V O"><circle cx="5.669" cy="1184.9" r="5.669" transform="matrix(1 0 0 -1 480.61 1346.7)" class="W"/><circle cx="5.669" cy="1184.9" r="5.669" transform="matrix(-1 0 0 1 585.09 -1031)" class="S"/></g><text x="594.99" y="159.37" class="P Q R">T22</text><text x="618.99" y="159.37" class="P Q R">$T22$</text><g class="U V"><circle cx="5.669" cy="1184.9" r="5.669" transform="matrix(1 0 0 -1 573.45 1346.7)" class="O T W"/><g class="S X"><path d="M395.58 105.5v21.87h91.01v20.97m-91.01-21.04h-92.53v20.98m276.37.02v-20.98H466.44"/><path d="M395.58 127.3H204.14v20.99"/></g></g><text x="240.39" y="159.37" class="P Q R">$T18$</text></g></svg>
